<svg id="b0c0a77d-1516-40a1-819d-acc6bac26b11" data-name="Layer 1" xmlns="http://www.w3.org/2000/svg" width="371.16" height="180" viewBox="0 0 371.16 180"><defs><style>.a08190f9-7985-4aa6-8ff8-74c111ee3ac8{fill:#ececec;}.a08190f9-7985-4aa6-8ff8-74c111ee3ac8,.a8ae10bf-bdf7-44a4-a2da-55205d9b372e{stroke:#404040;}.a8ae10bf-bdf7-44a4-a2da-55205d9b372e,.bdc48a0c-e3e4-4841-a3f1-be0961afc258{fill:none;}.b490ee45-9336-48da-be95-23aa971e4dfd{fill:#333;}.bdc48a0c-e3e4-4841-a3f1-be0961afc258{stroke:#333;stroke-linecap:round;stroke-miterlimit:10;}</style></defs><title>area-of-trapezoid-formula</title><polygon class="a08190f9-7985-4aa6-8ff8-74c111ee3ac8" points="178.21 135.07 27.41 135.1 52.5 44.9 135.63 44.9 178.21 135.07"/><line class="a8ae10bf-bdf7-44a4-a2da-55205d9b372e" x1="53.18" y1="135.1" x2="53.18" y2="44.9"/><polyline class="a8ae10bf-bdf7-44a4-a2da-55205d9b372e" points="63.18 135.07 63.18 124.83 53.18 124.83"/><path class="b490ee45-9336-48da-be95-23aa971e4dfd" d="M69.68,98.43a2,2,0,0,1-1.41-.51,1.78,1.78,0,0,1-.54-1.34,3.21,3.21,0,0,1,.21-1,27.14,27.14,0,0,0,1.33-4.16,4.84,4.84,0,0,0,.06-.84c0-.86-.36-1.3-1.08-1.3a2.52,2.52,0,0,0-.57.05,4.19,4.19,0,0,0-2.6,2.11l-.15.29-.75,3q-.71,2.85-.81,3.12a1,1,0,0,1-1,.59,1,1,0,0,1-.52-.16.51.51,0,0,1-.25-.43q0-.27,3.23-13.2c0-.18,0-.29-.13-.35a3,3,0,0,0-.88-.11h-.46a.6.6,0,0,1-.14-.18,2.13,2.13,0,0,1,0-.42c.08-.27.17-.41.29-.41l1.59-.13,1.6-.12c.17,0,.26.07.26.2s-.26,1.27-.79,3.32-.84,3.28-.84,3.33.06,0,.16-.11a4.11,4.11,0,0,1,2.86-1.19,3,3,0,0,1,1.93.59,2.11,2.11,0,0,1,.73,1.74,3.93,3.93,0,0,1-.07.84,26.9,26.9,0,0,1-1.21,3.89,5.34,5.34,0,0,0-.39,1.56.73.73,0,0,0,.11.42.42.42,0,0,0,.33.11A1.49,1.49,0,0,0,71,97a5.06,5.06,0,0,0,.85-1.79.55.55,0,0,1,.13-.29.84.84,0,0,1,.35,0c.28,0,.43.1.44.17a2,2,0,0,1-.08.33,5,5,0,0,1-1.13,2.14A2.3,2.3,0,0,1,69.68,98.43Z"/><path class="b490ee45-9336-48da-be95-23aa971e4dfd" d="M95.59,142.74l1.59-.12,1.6-.12c.18,0,.26.07.26.2s-.25,1.18-.75,3.14c-.11.5-.24,1-.38,1.54l-.32,1.19-.09.42s0,0,.13-.07a4,4,0,0,1,1.68-.83,3.21,3.21,0,0,1,.55-.05,3.31,3.31,0,0,1,.55.05,3,3,0,0,1,1.82,1.19,3.77,3.77,0,0,1,.69,2.33,6.55,6.55,0,0,1-1.73,4.43,5,5,0,0,1-3.75,2,2.66,2.66,0,0,1-1.21-.29c-1.15-.51-1.72-1.6-1.72-3.25a5.86,5.86,0,0,1,.13-1.26s.37-1.51,1.1-4.51l1.13-4.48c0-.21,0-.34-.15-.39a1.8,1.8,0,0,0-.63-.08h-.24a1.13,1.13,0,0,1-.52-.06c-.09-.08-.1-.25,0-.53s.11-.32.16-.35A.16.16,0,0,1,95.59,142.74Zm5.43,7.88c0-1.18-.44-1.76-1.34-1.76h-.26a3.8,3.8,0,0,0-2.16,1.58l-.11.14-.07.08s-.12.54-.38,1.58-.4,1.62-.43,1.77a6.29,6.29,0,0,0-.13,1.23,2.11,2.11,0,0,0,.53,1.58,1.18,1.18,0,0,0,.88.36,2.2,2.2,0,0,0,1.47-.71,3.9,3.9,0,0,0,.89-1.24,13,13,0,0,0,.72-2.3A11,11,0,0,0,101,150.62Z"/><path class="b490ee45-9336-48da-be95-23aa971e4dfd" d="M99.87,30.22h.26a.22.22,0,0,1,.12.05.26.26,0,0,1,0,.14,1.71,1.71,0,0,1-.07.33A5.82,5.82,0,0,1,99,33.3a1.4,1.4,0,0,1-1.24.5,2,2,0,0,1-1.93-1.07l-.11-.27s-.05,0-.09,0l-.09.09a4.51,4.51,0,0,1-2.09,1.21,3.51,3.51,0,0,1-.55,0,2.91,2.91,0,0,1-2.4-1.21,4.25,4.25,0,0,1-.66-2.46,2.49,2.49,0,0,1,0-.48,6.61,6.61,0,0,1,.91-2.7,7,7,0,0,1,1.81-2.08,4.33,4.33,0,0,1,2.69-1,2.54,2.54,0,0,1,2,1.08,1.09,1.09,0,0,1,1-.66.79.79,0,0,1,.51.18.54.54,0,0,1,.22.44c0,.19-.28,1.36-.83,3.53a33.82,33.82,0,0,0-.83,3.64c0,.61.21.92.62.92a.89.89,0,0,0,.44-.2,4.86,4.86,0,0,0,.9-2.11c.09-.29.16-.45.22-.46l.22,0Zm-8.12,1a2.23,2.23,0,0,0,.34,1.28,1.17,1.17,0,0,0,1,.48,2.3,2.3,0,0,0,1.36-.53,4.17,4.17,0,0,0,.71-.66,3.82,3.82,0,0,0,.54-.66c0-.05.23-.84.61-2.35s.56-2.32.56-2.44a1.85,1.85,0,0,0-.24-.75,1.53,1.53,0,0,0-1.39-.95,2,2,0,0,0-1.55.75,5.07,5.07,0,0,0-1,1.72,16.89,16.89,0,0,0-.9,3.61s0,.12,0,.24S91.75,31.19,91.75,31.25Z"/><path class="b490ee45-9336-48da-be95-23aa971e4dfd" d="M213.22,97.17a.41.41,0,0,1-.15-.24,2.07,2.07,0,0,1,.08-.37,1,1,0,0,1,.12-.33l.09-.07h.3a2.67,2.67,0,0,0,2.25-1.1q.14-.14,4-6.72c2.57-4.39,3.88-6.61,3.91-6.66a.47.47,0,0,1,.2-.23,2.46,2.46,0,0,1,.5,0h.37a1.13,1.13,0,0,1,.14.22l.61,7.11q.62,7.09.66,7.17c.08.16.55.24,1.43.24h.34a.34.34,0,0,1,.16.06.21.21,0,0,1,.05.15,2.67,2.67,0,0,1-.06.31,1.26,1.26,0,0,1-.13.4c0,.06-.13.08-.29.08s-.7,0-1.31,0l-1.46,0c-1.38,0-2.28,0-2.71,0h-.26a.72.72,0,0,1-.15-.18,2.29,2.29,0,0,1,.06-.41,1.76,1.76,0,0,1,.13-.35l.09-.07h.44c.79,0,1.26-.15,1.41-.37l-.27-3.3h-5.23l-.75,1.27c-.53.88-.8,1.36-.82,1.43a.88.88,0,0,0-.08.33c0,.37.33.58,1,.64.28,0,.42.07.42.22a1.28,1.28,0,0,1-.07.31,1.12,1.12,0,0,1-.13.39.36.36,0,0,1-.29.09c-.25,0-.64,0-1.19,0l-1.23,0c-1,0-1.71,0-2,0Zm10.43-5.72c0-.16-.09-1.3-.27-3.43s-.29-3.2-.3-3.21l-.59.94-1.39,2.36-2,3.34,2.27,0C222.9,91.47,223.65,91.47,223.65,91.45Z"/><path class="b490ee45-9336-48da-be95-23aa971e4dfd" d="M236.63,89.54a.47.47,0,0,1,.31-.44h14a.48.48,0,0,1,.33.44.51.51,0,0,1-.3.42l-7,0h-7A.44.44,0,0,1,236.63,89.54Zm0,4.27a.44.44,0,0,1,.35-.44h14l.09.07.11.09a.23.23,0,0,1,.07.11.47.47,0,0,1,0,.17.49.49,0,0,1-.33.44h-14A.48.48,0,0,1,236.63,93.81Z"/><path class="b490ee45-9336-48da-be95-23aa971e4dfd" d="M268.46,85.67c0,.13-.14.2-.4.2h-.29l-.61-.53q-4-3.6-4-10.47a18,18,0,0,1,.63-4.91,11.92,11.92,0,0,1,3.33-5.56l.35-.3.26-.23h.29c.18,0,.28,0,.33.07a.19.19,0,0,1,.07.13c0,.06-.09.17-.25.33q-3.4,3.6-3.41,10.47t3.41,10.47C268.37,85.5,268.46,85.61,268.46,85.67Z"/><path class="b490ee45-9336-48da-be95-23aa971e4dfd" d="M280.4,77h.26a.17.17,0,0,1,.11.06.17.17,0,0,1,.05.13,1.46,1.46,0,0,1-.07.33,5.65,5.65,0,0,1-1.19,2.55,2.21,2.21,0,0,1-.7.47,2.36,2.36,0,0,1-.53,0,2,2,0,0,1-1.93-1.08,2.1,2.1,0,0,0-.11-.26s-.05,0-.09,0l-.09.09A4.51,4.51,0,0,1,274,80.57c-.09,0-.27,0-.55,0a2.91,2.91,0,0,1-2.4-1.21,4.27,4.27,0,0,1-.66-2.46,4.72,4.72,0,0,1,0-.49,6.69,6.69,0,0,1,.92-2.69,7,7,0,0,1,1.81-2.08,4.33,4.33,0,0,1,2.69-1,2.54,2.54,0,0,1,2,1.08,1.09,1.09,0,0,1,1-.66.74.74,0,0,1,.5.17.54.54,0,0,1,.22.44c0,.19-.27,1.37-.82,3.53a35,35,0,0,0-.83,3.64c0,.62.21.93.62.93a1,1,0,0,0,.44-.2,4.92,4.92,0,0,0,.9-2.11c.09-.29.16-.45.22-.46a.51.51,0,0,1,.22,0Zm-8.12,1a2.2,2.2,0,0,0,.34,1.27,1.14,1.14,0,0,0,1,.49,2.4,2.4,0,0,0,1.37-.53,5.24,5.24,0,0,0,.71-.66,3.82,3.82,0,0,0,.54-.66c0-.06.23-.84.61-2.35s.56-2.33.56-2.45a1.86,1.86,0,0,0-.24-.74,1.53,1.53,0,0,0-1.39-1,2,2,0,0,0-1.55.75,5.12,5.12,0,0,0-1,1.71,17.68,17.68,0,0,0-.91,3.61s0,.13,0,.24S272.28,78,272.28,78Z"/><path class="b490ee45-9336-48da-be95-23aa971e4dfd" d="M288.06,74.87a.48.48,0,0,1,.3-.44h6.58v-3.3l0-3.3c.15-.19.29-.29.42-.29a.48.48,0,0,1,.44.33v6.56h6.56c.22.12.33.26.33.44s-.11.32-.33.44h-6.56v6.56a.47.47,0,0,1-.88,0V75.31h-6.58A.48.48,0,0,1,288.06,74.87Z"/><path class="b490ee45-9336-48da-be95-23aa971e4dfd" d="M311.4,65.34l1.59-.12,1.6-.12c.17,0,.26.07.26.2s-.25,1.18-.75,3.15c-.11.5-.24,1-.38,1.54l-.32,1.18-.09.42s.05,0,.13-.06a4.16,4.16,0,0,1,1.68-.84,3.24,3.24,0,0,1,.55,0,3.31,3.31,0,0,1,.55,0A3,3,0,0,1,318,71.88a3.77,3.77,0,0,1,.68,2.33A6.54,6.54,0,0,1,317,78.64a5,5,0,0,1-3.75,2,2.66,2.66,0,0,1-1.21-.28c-1.15-.52-1.72-1.6-1.72-3.26a5.77,5.77,0,0,1,.13-1.25s.37-1.52,1.1-4.51l1.12-4.49c0-.21,0-.34-.14-.39a1.86,1.86,0,0,0-.63-.07h-.24a1.15,1.15,0,0,1-.53-.07c-.08-.07-.09-.25,0-.53s.11-.32.16-.35A.19.19,0,0,1,311.4,65.34Zm5.43,7.88c0-1.17-.45-1.76-1.34-1.76h-.26a3.78,3.78,0,0,0-2.16,1.59.81.81,0,0,0-.11.13l-.07.09s-.12.54-.38,1.57-.4,1.62-.43,1.77a6.36,6.36,0,0,0-.13,1.23,2.14,2.14,0,0,0,.53,1.59,1.19,1.19,0,0,0,.88.35,2.2,2.2,0,0,0,1.47-.71,3.79,3.79,0,0,0,.89-1.24,13,13,0,0,0,.72-2.3A10.88,10.88,0,0,0,316.83,73.22Z"/><path class="b490ee45-9336-48da-be95-23aa971e4dfd" d="M320.2,63.89l.09,0h.48l.62.53q4,3.6,4,10.47a17.53,17.53,0,0,1-.64,4.88,11.91,11.91,0,0,1-3.32,5.59l-.36.3-.26.23h-.26a.81.81,0,0,1-.34,0c-.06,0-.08-.11-.08-.22l.24-.29q3.41-3.54,3.41-10.45t-3.41-10.45l-.24-.29A.26.26,0,0,1,320.2,63.89Z"/><path class="b490ee45-9336-48da-be95-23aa971e4dfd" d="M336.54,80.59a1.93,1.93,0,0,1-1.4-.52,1.71,1.71,0,0,1-.55-1.33,3,3,0,0,1,.22-1,25.76,25.76,0,0,0,1.32-4.15,4.84,4.84,0,0,0,.06-.84c0-.86-.36-1.3-1.08-1.3a2.52,2.52,0,0,0-.57,0A4.15,4.15,0,0,0,332,73.64l-.16.28-.75,3c-.46,1.91-.74,3-.81,3.13a1,1,0,0,1-1,.59.9.9,0,0,1-.51-.16.51.51,0,0,1-.26-.43q0-.27,3.24-13.2c0-.18-.05-.3-.14-.35a3,3,0,0,0-.88-.11h-.46a.6.6,0,0,1-.14-.18,2.13,2.13,0,0,1,.05-.42c.08-.28.17-.42.29-.42l1.6-.12,1.59-.12c.18,0,.26.07.26.2s-.26,1.27-.79,3.32-.83,3.28-.83,3.32.05,0,.15-.11a4.16,4.16,0,0,1,2.86-1.18,3,3,0,0,1,1.94.59A2.14,2.14,0,0,1,338,73a4.71,4.71,0,0,1-.06.83,29.36,29.36,0,0,1-1.21,3.9,5.12,5.12,0,0,0-.4,1.56.73.73,0,0,0,.11.42.42.42,0,0,0,.33.11,1.54,1.54,0,0,0,1.16-.67,5,5,0,0,0,.84-1.8.64.64,0,0,1,.13-.28.84.84,0,0,1,.36,0c.28,0,.42.11.44.18s0,.12-.09.33a5,5,0,0,1-1.12,2.13A2.33,2.33,0,0,1,336.54,80.59Z"/><path class="b490ee45-9336-48da-be95-23aa971e4dfd" d="M297.54,102.72a1.21,1.21,0,0,1-1-.4,1.35,1.35,0,0,1-.35-1,3.6,3.6,0,0,1,1.2-2.72,4,4,0,0,1,2.87-1.13,4.77,4.77,0,0,1,3.13,1A4.27,4.27,0,0,1,305,101.2a6.72,6.72,0,0,1,.05.73,4.2,4.2,0,0,1-.77,2.4,14.7,14.7,0,0,1-2.49,2.53c-.53.45-1.26,1.13-2.2,2l-1.3,1.23,1.67,0a25.27,25.27,0,0,0,3.68-.11c.06,0,.13-.16.22-.46a14.21,14.21,0,0,0,.31-1.49V108H305v.07l-.62,4v.07h-8.16v-.42a1.59,1.59,0,0,1,0-.51s.63-.71,1.85-2.09q2.4-2.65,3.08-3.52a6.35,6.35,0,0,0,1.47-3.67,3.87,3.87,0,0,0-.75-2.43,2.56,2.56,0,0,0-2.13-1,2.42,2.42,0,0,0-2.07,1.14l-.13.25a.4.4,0,0,0-.06.13s0,0,.11,0a1.12,1.12,0,0,1,.89.4,1.39,1.39,0,0,1,.34.92,1.29,1.29,0,0,1-.36.93A1.27,1.27,0,0,1,297.54,102.72Z"/><line class="bdc48a0c-e3e4-4841-a3f1-be0961afc258" x1="262.31" y1="91.23" x2="338.93" y2="91.23"/></svg>